<svg xmlns="http://www.w3.org/2000/svg" xmlns:xlink="http://www.w3.org/1999/xlink" viewBox="0 0 1024 1024" width="1024" height="1024" preserveAspectRatio="xMidYMid meet" style="width: 100%; height: 100%; transform: translate3d(0px, 0px, 0px); content-visibility: visible;" id="Gorilla"><defs><clipPath id="__lottie_element_485"><rect width="1024" height="1024" x="0" y="0"/></clipPath><linearGradient id="__lottie_element_490" spreadMethod="pad" gradientUnits="userSpaceOnUse" x1="4" y1="113" x2="-3" y2="-57"><stop offset="0%" stop-color="rgb(72,77,81)"/><stop offset="60%" stop-color="rgb(62,65,67)"/><stop offset="100%" stop-color="rgb(52,52,52)"/></linearGradient><linearGradient id="__lottie_element_491" spreadMethod="pad" gradientUnits="userSpaceOnUse" x1="-5" y1="-97" x2="24" y2="260"><stop offset="0%" stop-color="rgb(169,169,169)"/><stop offset="60%" stop-color="rgb(131,134,135)"/><stop offset="100%" stop-color="rgb(93,98,101)"/></linearGradient><linearGradient id="__lottie_element_497" spreadMethod="pad" gradientUnits="userSpaceOnUse" x1="-31" y1="313" x2="-32" y2="-119"><stop offset="0%" stop-color="rgb(72,77,81)"/><stop offset="60%" stop-color="rgb(62,65,67)"/><stop offset="100%" stop-color="rgb(52,52,52)"/></linearGradient><linearGradient id="__lottie_element_510" spreadMethod="pad" gradientUnits="userSpaceOnUse" x1="-67" y1="50.5" x2="-3" y2="-58"><stop offset="0%" stop-color="rgb(72,77,81)"/><stop offset="60%" stop-color="rgb(62,65,67)"/><stop offset="100%" stop-color="rgb(52,52,52)"/></linearGradient><linearGradient id="__lottie_element_514" spreadMethod="pad" gradientUnits="userSpaceOnUse" x1="39" y1="-243" x2="41" y2="-111"><stop offset="0%" stop-color="rgb(169,169,169)"/><stop offset="25%" stop-color="rgb(131,134,135)"/><stop offset="100%" stop-color="rgb(93,98,101)"/></linearGradient><linearGradient id="__lottie_element_515" spreadMethod="pad" gradientUnits="userSpaceOnUse" x1="-28" y1="132" x2="37.5" y2="21.5"><stop offset="0%" stop-color="rgb(72,77,81)"/><stop offset="60%" stop-color="rgb(62,65,67)"/><stop offset="100%" stop-color="rgb(52,52,52)"/></linearGradient><linearGradient id="__lottie_element_516" spreadMethod="pad" gradientUnits="userSpaceOnUse" x1="21" y1="-56" x2="-19" y2="57"><stop offset="0%" stop-color="rgb(72,77,81)"/><stop offset="60%" stop-color="rgb(62,65,67)"/><stop offset="100%" stop-color="rgb(52,52,52)"/></linearGradient><linearGradient id="__lottie_element_532" spreadMethod="pad" gradientUnits="userSpaceOnUse" x1="-31" y1="313" x2="-32" y2="-119"><stop offset="0%" stop-color="rgb(72,77,81)"/><stop offset="60%" stop-color="rgb(62,65,67)"/><stop offset="100%" stop-color="rgb(52,52,52)"/></linearGradient></defs><g clip-path="url(#__lottie_element_485)"><g transform="matrix(0.06902525573968887,0.9976149201393127,-0.9976149201393127,0.06902525573968887,852.8560791015625,31.551177978515625)" opacity="1" style="display: block;"><g opacity="1" transform="matrix(1,0,0,1,122.6500015258789,342.5299987792969)"><path fill="rgb(93,97,100)" fill-opacity="1" d=" M175.9530029296875,-129.7220001220703 C175.9530029296875,-129.7220001220703 70.59600067138672,-241.01499938964844 55.555999755859375,-241.5749969482422 C40.51599884033203,-242.13499450683594 -21.4606990814209,-258.5883483886719 -73.33470153808594,-199.71034240722656 C-121.0636978149414,-145.53634643554688 -122.09391021728516,-123.43525695800781 -129.8679962158203,-86.30699920654297 C-137.66204833984375,-49.17874526977539 -174.96629333496094,46.951866149902344 -138.5712127685547,125.8553237915039 C-124.52531433105469,159.25595092773438 -85.95577239990234,187.55242919921875 -20.382455825805664,192.1282958984375 C11.598186492919922,196.7862548828125 50.67688751220703,183.07546997070312 95.47472381591797,168.5985565185547 C111.05664825439453,157.16949462890625 120.1903076171875,189.6101837158203 161.43983459472656,184.0713348388672 C180.68421936035156,178.8501739501953 194.60142517089844,167.82655334472656 207.94236755371094,137.13101196289062 C221.28286743164062,106.43447875976562 207.6038818359375,82.55956268310547 183.619140625,62.755706787109375 C166.5717010498047,46.700096130371094 130.84445190429688,48.80228805541992 130.84445190429688,48.80228805541992 C130.84445190429688,48.80228805541992 114.40382385253906,44.609039306640625 102.27818298339844,46.427799224853516 C87.99681854248047,51.85689163208008 88.35946655273438,62.18326950073242 88.35946655273438,62.18326950073242 C88.35946655273438,62.18326950073242 92.16974639892578,47.31966781616211 72.25557708740234,22.481542587280273 C62.639129638671875,10.487774848937988 32.829315185546875,-19.523710250854492 31.8663387298584,-27.124338150024414 C30.903362274169922,-34.65618133544922 175.9530029296875,-129.7220001220703 175.9530029296875,-129.7220001220703z"/></g></g><g transform="matrix(0.06902525573968887,0.9976149201393127,-0.9976149201393127,0.06902525573968887,885.6817626953125,57.02613830566406)" opacity="1"><g opacity="1" transform="matrix(1,0,0,1,124.23999786376953,374.1889953613281)"><path fill="url(#__lottie_element_497)" fill-opacity="1" d=" M-93.76583862304688,230.55645751953125 C-97.20584106445312,205.90097045898438 -85.0644302368164,182.4888916015625 -97.6067886352539,163.29579162597656 C-106.73751068115234,151.4910125732422 -118.49954986572266,136.3092041015625 -129.77955627441406,115.97103118896484 C-141.05955505371094,95.63285064697266 -137.63455200195312,55.764488220214844 -124.24922180175781,19.277435302734375 C-115.60922241210938,-4.264051914215088 -101.05955505371094,-23.209239959716797 -102.75955200195312,-45.70573425292969 C-95.30955505371094,-34.30949020385742 -96.67955017089844,-29.12952995300293 -90.67955017089844,-18.1949462890625 C-81.05955505371094,-45.410404205322266 -103.28849029541016,-73.1238784790039 -97.6670913696289,-114.94978332519531 C-91.47306823730469,-151.9632568359375 -76.71037292480469,-196.73326110839844 -69.45938873291016,-221.96432495117188 C-62.20840835571289,-247.19537353515625 -54.648658752441406,-279.643798828125 -41.624778747558594,-295.7054443359375 C-25.251615524291992,-316.1103210449219 2.14453125,-344.4914855957031 31.04819679260254,-339.5863037109375 C103.31608581542969,-323.04986572265625 205.57440185546875,-321.9197692871094 203.33441162109375,-291.1340026855469 C201.014404296875,-260.3482360839844 208.45541381835938,-29.913982391357422 210.77540588378906,18.77198028564453 C213.0954132080078,67.45793914794922 238.92799377441406,228.76231384277344 238.92799377441406,228.76231384277344 C238.92799377441406,228.76231384277344 51.36631393432617,329.1933898925781 50.32631301879883,330.3277282714844 C50.32631301879883,330.3277282714844 -21.49483871459961,298.4715881347656 -54.085838317871094,277.3624267578125 C-70.72583770751953,269.56182861328125 -91.52584075927734,246.9949951171875 -93.76583862304688,230.55645751953125z"/></g></g><g transform="matrix(1,0,0,1,236.70999145507812,206.87002563476562)" opacity="1" style="display: block;"><g opacity="1" transform="matrix(1,0,0,1,364.6499938964844,611.010009765625)"><path fill="url(#__lottie_element_490)" fill-opacity="1" d=" M91.063720703125,-150.9192657470703 C91.063720703125,-150.9192657470703 -27.102054595947266,-224.6273193359375 -27.102054595947266,-224.6273193359375 C-27.102054595947266,-224.6273193359375 -65.43900299072266,-16 -59.35900115966797,15.920000076293945 C-53.27899932861328,47.84000015258789 -50.23899841308594,73 -53.27899932861328,82.91999816894531 C-56.319000244140625,92.83999633789062 -85.1989974975586,112.60099792480469 -79.91899871826172,131.63999938964844 C-74.55899810791016,150.67999267578125 -29.68000030517578,155.24000549316406 17.44099998474121,149.16000366210938 C64.64099884033203,143.0800018310547 72.96099853515625,126.36100006103516 73.76100158691406,101.23999786376953 C74.56099700927734,76.12000274658203 57.04100036621094,33.520999908447266 59.279998779296875,21.361000061035156 C61.60100173950195,9.199999809265137 85.56099700927734,-20.15999984741211 87.88099670410156,-49.84000015258789 C90.19999694824219,-79.51899719238281 91.063720703125,-150.9192657470703 91.063720703125,-150.9192657470703z"/></g><g opacity="1" transform="matrix(1,0,0,1,359.9700012207031,392.7699890136719)"><path fill="rgb(93,97,100)" fill-opacity="1" d=" M133.33175659179688,-446.6719665527344 C133.33175659179688,-446.6719665527344 -27.260339736938477,-414.0909423828125 -27.260339736938477,-414.0909423828125 C-31.49308967590332,-401.1580810546875 -53.673858642578125,-380.234375 -72.47188568115234,-338.631103515625 C-91.5030288696289,-296.939697265625 -80.86107635498047,-256.7927551269531 -80.86107635498047,-256.7927551269531 C-80.86107635498047,-256.7927551269531 -87.22084045410156,-205.6668243408203 -78.20516204833984,-171.57894897460938 C-60.686248779296875,-105.34290313720703 -32.643524169921875,-17.99747085571289 -26.595006942749023,9.394584655761719 C-20.546491622924805,36.78664016723633 -3.860755443572998,116.09375 55.581443786621094,135.270751953125 C83.14043426513672,144.16201782226562 124.61092376708984,141.27999877929688 124.61092376708984,141.27999877929688 C124.61092376708984,141.27999877929688 119.60084533691406,199.9489288330078 148.15985107421875,234.74893188476562 C176.72084045410156,269.6289367675781 178.72000122070312,267.3599853515625 191.27999877929688,274.79901123046875 C203.83900451660156,282.239990234375 200.9600067138672,323.20001220703125 196.9600067138672,328.3999938964844 C192.9600067138672,333.6000061035156 169.47999572753906,353.6400146484375 168.0399932861328,365.6400146484375 C166.91900634765625,375.3999938964844 165.63999938964844,387.3999938964844 219.39999389648438,389.6400146484375 C287.79901123046875,392.5199890136719 325.4800109863281,370.8389892578125 342.6000061035156,358.8389892578125 C359.7200012207031,346.8389892578125 340.0799865722656,307.3599853515625 329.2799987792969,257.7590026855469 C318.3999938964844,208.0800018310547 296.2221374511719,151.52084350585938 296.2221374511719,151.52084350585938 C296.2221374511719,151.52084350585938 279.4953308105469,-4.132848262786865 279.4953308105469,-4.132848262786865 C279.4953308105469,-4.132848262786865 250.23367309570312,-122.49510192871094 250.23367309570312,-122.49510192871094 C250.23367309570312,-122.49510192871094 250.96917724609375,-275.65283203125 250.96917724609375,-275.65283203125 C250.96917724609375,-275.65283203125 219.40371704101562,-421.333251953125 219.40371704101562,-421.333251953125 C219.40371704101562,-421.333251953125 133.33175659179688,-446.6719665527344 133.33175659179688,-446.6719665527344z"/></g><g opacity="1" transform="matrix(1,0,0,1,546.3699951171875,369.6099853515625)"><path fill="url(#__lottie_element_491)" fill-opacity="1" d=" M-59.17596435546875,0.7493701577186584 C-56.064247131347656,37.34097671508789 -32.54390335083008,56.6585578918457 -14.980567932128906,61.62098693847656 C6.391299724578857,67.65969848632812 23.01348304748535,58.966835021972656 33.97819137573242,55.387550354003906 C44.94289779663086,51.80826950073242 57.440921783447266,53.27933883666992 57.440921783447266,53.27933883666992 C57.440921783447266,53.27933883666992 22.55051612854004,91.39604187011719 16.03830337524414,117.88339233398438 C-4.1727681159973145,200.3965606689453 19.37964630126953,223.86134338378906 50.12763214111328,235.65701293945312 C78.7755355834961,247.34744262695312 121.31745910644531,219.8672332763672 121.31745910644531,219.8672332763672 C121.31745910644531,219.8672332763672 163.49429321289062,134.61045837402344 152.04774475097656,45.0423583984375 C144.14688110351562,-16.784162521362305 123.9498291015625,-41.851070404052734 114.26803588867188,-64.06790924072266 C106.79524230957031,-81.21600341796875 104.17974853515625,-97.51981353759766 94.87979888916016,-120.50748443603516 C87.20487976074219,-139.4786834716797 82.33081817626953,-170.09132385253906 75.82202911376953,-194.9578857421875 C69.37325286865234,-219.77845764160156 63.053855895996094,-247.1737518310547 63.053855895996094,-247.1737518310547 C66.73900604248047,-249.84461975097656 46.23079299926758,-189.30999755859375 18.061948776245117,-161.0875244140625 C-0.3414079248905182,-142.6489715576172 -62.250572204589844,-35.745758056640625 -59.17596435546875,0.7493701577186584z"/></g></g><g transform="matrix(0.9338498711585999,0.3576652407646179,-0.3576652407646179,0.9338498711585999,280.1783142089844,525.2471923828125)" opacity="1"><g opacity="1" transform="matrix(1,0,0,1,0,0)"><path fill="rgb(93,98,101)" fill-opacity="1" d=" M-61,-511 C-89,-515 -121,-478 -121,-478 C-121,-478 -112,-270 -72,-228 C-32,-186 -23.628864288330078,-131.80067443847656 -6,-130 C23.152870178222656,-123.09635162353516 136.42124938964844,-105.96672058105469 100.38815307617188,-182.80287170410156 C79.1229248046875,-235.35733032226562 43.996402740478516,-249.09730529785156 44.856201171875,-259.84478759765625 C45.71600341796875,-270.59228515625 38.648990631103516,-332.73016357421875 29.375652313232422,-391.87384033203125 C22.011579513549805,-442.0834655761719 -33,-507 -61,-511z"/></g></g><g transform="matrix(0.28158390522003174,0.959536612033844,-0.959536612033844,0.28158390522003174,966.2252197265625,171.78968811035156)" opacity="1" style="display: block;"><g opacity="1" transform="matrix(1,0,0,1,206.24899291992188,353.6499938964844)"><path fill="rgb(68,73,78)" fill-opacity="1" d=" M116.858642578125,-236.32107543945312 C141.29563903808594,-197.47308349609375 152.72840881347656,-164.86924743652344 167.7244110107422,-116.1552505493164 C181.3524169921875,-71.88325500488281 182.89585876464844,-48.89143753051758 184.51222229003906,-33.882022857666016 C187.95481872558594,-12.588287353515625 185.9653778076172,78.8265380859375 155.405029296875,120.13301086425781 C140.86663818359375,135.1910858154297 124.45645141601562,133.30857849121094 110.92500305175781,113.1122055053711 C69.72636413574219,54.87319564819336 29.025672912597656,-84.29238891601562 -7.925750732421875,-159.68341064453125 C-25.035907745361328,-197.18463134765625 -46.06708526611328,-233.19447326660156 -46.06708526611328,-233.19447326660156 C-46.06708526611328,-233.19447326660156 50.8116455078125,-341.319091796875 116.858642578125,-236.32107543945312z"/></g><g opacity="1" transform="matrix(1,0,0,1,147.00900268554688,398.0899963378906)"><path fill="rgb(93,97,100)" fill-opacity="1" d=" M-205.42745971679688,-211.6768035888672 C-205.42745971679688,-211.6768035888672 -179.08282470703125,-309.3414611816406 -102.94679260253906,-348.4123840332031 C-35.821815490722656,-382.87872314453125 43.42588806152344,-371.91888427734375 94.837890625,-346.9828796386719 C167.37889099121094,-311.79888916015625 170.13088989257812,-275.4300842285156 200.5635986328125,-191.52505493164062 C220.4166717529297,-136.62046813964844 230.2114715576172,-80.15038299560547 230.2114715576172,-80.15038299560547 C230.2114715576172,-80.15038299560547 230.81832885742188,-3.730081796646118 221.18016052246094,46.364219665527344 C208.27821350097656,116.73468780517578 202.3042449951172,165.73703002929688 199.68836975097656,188.735595703125 C197.13674926757812,211.10467529296875 193.3434295654297,232.15684509277344 185.5916290283203,258.7049255371094 C178.0612335205078,283.88336181640625 161.80282592773438,305.24371337890625 115.58308410644531,309.23443603515625 C63.22906494140625,312.49542236328125 51.2879638671875,281.13714599609375 47.390316009521484,261.0163879394531 C43.14458465576172,182.9282684326172 80.98396301269531,187.45794677734375 77.97977447509766,173.8135223388672 C68.51020050048828,132.07130432128906 72.74301147460938,133.08364868164062 62.16290283203125,96.71320343017578 C48.85759353637695,54.60383605957031 45.177799224853516,19.665578842163086 46.70062255859375,-3.9037744998931885 C48.222877502441406,-27.473127365112305 18.862125396728516,-66.98230743408203 -30.127164840698242,-116.74502563476562 C-79.64510345458984,-165.7227020263672 -205.42745971679688,-211.6768035888672 -205.42745971679688,-211.6768035888672z"/></g><g opacity="1" transform="matrix(1,0,0,1,30.09000015258789,282.69000244140625)"><path fill="url(#__lottie_element_510)" fill-opacity="1" d=" M60.604000091552734,11.32800006866455 C74.51499938964844,28.673999786376953 94.44465637207031,38.327232360839844 114.24686431884766,51.82218933105469 C134.049072265625,65.31714630126953 153.9444122314453,82.264404296875 154.7755584716797,100.66276550292969 C156.8879852294922,208.47950744628906 190.62225341796875,266.9377136230469 190.62225341796875,266.9377136230469 C190.62225341796875,266.9377136230469 184.1664581298828,211.8350372314453 182.39886474609375,179.407470703125 C180.63125610351562,146.9799041748047 173.8111572265625,108.44579315185547 176.2461395263672,100.03976440429688 C180.54061889648438,84.87423706054688 172.46951293945312,63.393157958984375 168.7711181640625,48.30259704589844 C165.21798706054688,32.92963790893555 124.16033935546875,9.014902114868164 108.2345962524414,3.1728899478912354 C74.50760650634766,-9.199320793151855 49.867897033691406,-51.102779388427734 41.99283981323242,-40.94800567626953 C34.07096481323242,-30.780075073242188 41.55699920654297,-12.42300033569336 60.604000091552734,11.32800006866455z"/></g></g><g transform="matrix(0.6526378393173218,0.757669985294342,-0.757669985294342,0.6526378393173218,808.53515625,-93.65744018554688)" opacity="1" style="display: block;"><g opacity="1" transform="matrix(1,0,0,1,167.08999633789062,214.61500549316406)"><path fill="url(#__lottie_element_514)" fill-opacity="1" d=" M-82.31999969482422,183.31399536132812 C-90.4000015258789,170.593994140625 -122.23999786376953,171.87399291992188 -145.0399932861328,135.95399475097656 C-167.83999633789062,100.03399658203125 -165.96426391601562,54.16394805908203 -154.0442657470703,32.48394775390625 C-144.124267578125,14.643948554992676 -131.80426025390625,8.482982635498047 -131.80426025390625,8.482982635498047 C-131.80426025390625,8.482982635498047 -128.83993530273438,-4.026335716247559 -128.83993530273438,-4.026335716247559 C-128.83993530273438,-4.026335716247559 -148.47999572753906,-13.005999565124512 -150.24000549316406,-38.68600082397461 C-152,-64.36599731445312 -143.36000061035156,-76.36499786376953 -119.44000244140625,-95.7249984741211 C-95.5199966430664,-115.08499908447266 -76.01370239257812,-126.96208953857422 -76.01370239257812,-126.96208953857422 C-76.01370239257812,-126.96208953857422 -78.74407958984375,-153.4515838623047 -69.76000213623047,-167.0850067138672 C-60.7786750793457,-180.71566772460938 -32.588497161865234,-211.2886505126953 12.416190147399902,-205.93731689453125 C56.44948959350586,-200.7057342529297 86.69181060791016,-183.2115936279297 115.98938751220703,-152.28614807128906 C145.28697204589844,-121.3607177734375 148.07716369628906,-93.69099426269531 147.4574432373047,-86.48274230957031 C146.91482543945312,-79.27448272705078 122.88729858398438,-43.38743591308594 122.88729858398438,-43.38743591308594 C93.9773178100586,97.0505599975586 35.30431365966797,193.87411499023438 -82.31999969482422,183.31399536132812z"/></g><g opacity="1" transform="matrix(1,0,0,1,212.97000122070312,366.489990234375)"><path fill="url(#__lottie_element_515)" fill-opacity="1" d="M58.9193115234375,-49.303321838378906 C59.936893463134766,-56.53329086303711 61.07705307006836,-62.109405517578125 58.938350677490234,-68.02564239501953 C58.441505432128906,-69.51170349121094 57.55044937133789,-71.00630950927734 56.0428581237793,-71.52821350097656 C54.459129333496094,-72.03660583496094 52.73417663574219,-71.10692596435547 51.43336868286133,-70.0115966796875 C43.41651153564453,-63.257423400878906 42.667724609375,-50.935638427734375 38.26110076904297,-41.98317337036133 C31.925153732299805,-29.231651306152344 24.418174743652344,-16.431560516357422 13.66108512878418,-6.916109561920166 C-4.5654144287109375,9.336957931518555 -30.50522232055664,20.178693771362305 -53.37625503540039,27.887012481689453 C-55.53499984741211,28.580698013305664 -57.89705276489258,29.467212677001953 -58.96240234375,31.46267318725586 C-65.38650512695312,42.813785552978516 -16.627248764038086,43.698326110839844 22.401182174682617,29.458749771118164 C51.6334342956543,16.19048500061035 54.257930755615234,-16.177644729614258 58.9193115234375,-49.303321838378906z"/></g><g opacity="1" transform="matrix(1,0,0,1,286.04998779296875,183.85000610351562)"><path fill="url(#__lottie_element_516)" fill-opacity="1" d=" M2.8810980319976807,23.57405662536621 C5.671297550201416,16.365798950195312 8.229222297668457,11.328018188476562 11.329766273498535,7.6848554611206055 C17.375680923461914,-2.5458767414093018 34.96984100341797,-10.99551010131836 34.96984100341797,-38.820404052734375 C34.96984100341797,-61.84075927734375 21.483394622802734,-87.72744750976562 21.483394622802734,-87.72744750976562 C21.483394622802734,-87.72744750976562 15.437479019165039,-43.39266586303711 3.268545389175415,-33.00676345825195 C-9.055561065673828,-22.54279136657715 -23.62628173828125,-18.97769546508789 -39.438377380371094,-18.435077667236328 C-71.44905090332031,-17.427907943725586 -51.606346130371094,5.204999923706055 -38.66251754760742,20.939027786254883 C-24.633451461791992,37.91346740722656 -16.26285171508789,57.67713928222656 -11.069900512695312,78.91446685791016 C-2.77640438079834,62.32747268676758 -4.637503147125244,41.09111404418945 2.8810980319976807,23.57405662536621z"/></g></g><g transform="matrix(0.6018462181091309,0.7986119985580444,-0.7986119985580444,0.6018462181091309,819.3270263671875,-92.35183715820312)" opacity="1" style="display: block;"><g opacity="1" transform="matrix(1,0,0,1,121.69000244140625,174.80999755859375)"><path fill="rgb(68,72,78)" fill-opacity="1" d=" M74.33399963378906,5.730999946594238 C76.01399993896484,-6.828999996185303 80.49099731445312,-17.058000564575195 65.0510025024414,-26.17799949645996 C49.611000061035156,-35.29800033569336 4.245999813079834,-31.510000228881836 -19.194000244140625,-30.389999389648438 C-42.55400085449219,-29.270000457763672 -86.66300201416016,-32.49300003051758 -82.66300201416016,-13.692999839782715 C-81.7030029296875,-8.972999572753906 -80.822998046875,-0.2529999911785126 -74.10299682617188,5.986999988555908 C-53.94300079345703,24.707000732421875 -18.53700065612793,22.996999740600586 -18.53700065612793,22.996999740600586 C-18.53700065612793,22.996999740600586 74.33399963378906,5.730999946594238 74.33399963378906,5.730999946594238z"/></g><g opacity="1" transform="matrix(1,0,0,1,120.69000244140625,262.45001220703125)"><path fill="rgb(173,173,174)" fill-opacity="1" d=" M-21.197999954223633,-79.12000274658203 C-13.758000373840332,-77.68000030517578 -3.9070000648498535,-110.34700012207031 44.573001861572266,-108.58699798583984 C83.3280029296875,-106.59300231933594 93.35900115966797,-80.697998046875 93.35900115966797,-80.697998046875 C93.35900115966797,-80.697998046875 57.4109992980957,-27.516000747680664 42.05099868774414,8.96399974822998 C26.611000061035156,45.444000244140625 15.6850004196167,79.5636215209961 6.035999774932861,93.0836181640625 C-3.61299991607666,106.60362243652344 -41.07899856567383,111.94961547851562 -62.39500045776367,78.08761596679688 C-78.19000244140625,52.996620178222656 -98.24800109863281,29.410999298095703 -93.68800354003906,2.2909998893737793 C-91.36799621582031,-11.628999710083008 -86.4469985961914,-21.56981086730957 -83.00700378417969,-25.24981117248535 C-80.28700256347656,-28.209810256958008 -65.88700103759766,-9.809810638427734 -57.32699966430664,-13.249811172485352 C-48.766998291015625,-16.68981170654297 -49.887001037597656,-22.129810333251953 -53.08700180053711,-25.809810638427734 C-56.207000732421875,-29.489810943603516 -70.76699829101562,-39.24980926513672 -70.76699829101562,-39.24980926513672 C-70.76699829101562,-39.24980926513672 -63.887001037597656,-49.809810638427734 -53.96699905395508,-45.24980926513672 C-45.48699951171875,-41.40980911254883 -40.09700012207031,-28.402999877929688 -40.09700012207031,-28.402999877929688 C-40.09700012207031,-28.402999877929688 -24.41699981689453,-44.882999420166016 -17.53700065612793,-46.08300018310547 C-6.416999816894531,-48.08300018310547 1.2630000114440918,-37.202999114990234 1.2630000114440918,-37.202999114990234 C1.2630000114440918,-37.202999114990234 -22.41699981689453,-29.523000717163086 -25.297000885009766,-22.64299964904785 C-28.177000045776367,-15.762999534606934 -22.976999282836914,-6.9629998207092285 -6.497000217437744,-12.963000297546387 C10.062999725341797,-18.96299934387207 17.183000564575195,-22.402999877929688 17.183000564575195,-22.402999877929688 C17.183000564575195,-22.402999877929688 18.062999725341797,-48.323001861572266 -7.057000160217285,-55.202999114990234 C-24.73699951171875,-60.08300018310547 -39.5369987487793,-42.40299987792969 -39.5369987487793,-42.40299987792969 C-39.5369987487793,-42.40299987792969 -47.08700180053711,-53.25 -53.08700180053711,-55.0099983215332 C-59.08700180053711,-56.689998626708984 -64.20700073242188,-55.56999969482422 -64.20700073242188,-55.56999969482422 C-64.20700073242188,-55.56999969482422 -71.90299987792969,-68.61299896240234 -74.78299713134766,-76.85299682617188 C-77.66300201416016,-85.09300231933594 -81.02300262451172,-97.41300201416016 -81.02300262451172,-97.41300201416016 C-81.02300262451172,-97.41300201416016 -65.50700378417969,-103.86699676513672 -48.946998596191406,-97.30699920654297 C-32.46699905395508,-90.66699981689453 -28.558000564575195,-80.55999755859375 -21.197999954223633,-79.12000274658203z"/></g></g><g transform="matrix(0.6018462181091309,0.7986119985580444,-0.7986119985580444,0.6018462181091309,604.2257080078125,96.09752655029297)" opacity="1" style="display: block;"><g opacity="1" transform="matrix(1,0,0,1,64.61000061035156,15.649999618530273)"><path fill="rgb(0,0,0)" fill-opacity="1" d=" M-2.40781307220459,-43.253597259521484 C5.214926242828369,-43.49435043334961 14.440954208374023,-39.13138961791992 21.923316955566406,-31.959489822387695 C27.119855880737305,-27.0479679107666 31.946985244750977,-19.91904067993164 33.50432586669922,-13.314072608947754 C35.820064544677734,-3.4919445514678955 37.08864974975586,2.953002452850342 35.7991943359375,11.024921417236328 C34.52229309082031,19.014404296875 31.20415687561035,26.152114868164062 27.56397819519043,30.601675033569336 C22.886669158935547,36.31877517700195 16.029224395751953,41.703983306884766 7.987241268157959,41.174625396728516 C-2.2206051349639893,40.512168884277344 -10.142854690551758,31.839237213134766 -11.849712371826172,24.709686279296875 C-13.504142761230469,17.260662078857422 -14.117825508117676,9.32068157196045 -18.47352409362793,-2.776838779449463 C-23.120805740356445,-15.613037109375 -22.330175399780273,-23.944496154785156 -20.392375946044922,-30.253690719604492 C-17.961877822875977,-38.10163879394531 -13.848259925842285,-42.80512619018555 -2.40781307220459,-43.253597259521484z"/></g></g><g style="display: block;" transform="matrix(0.6018462181091309,0.7986119985580444,-0.7986119985580444,0.6018462181091309,703.7823486328125,34.832794189453125)" opacity="1"><g opacity="1" transform="matrix(1,0,0,1,124.28800201416016,29.62299919128418)"><path stroke-linecap="round" stroke-linejoin="miter" fill-opacity="0" stroke-miterlimit="10" stroke="rgb(0,0,0)" stroke-opacity="1" stroke-width="8" d=" M-23.86400032043457,1.3960000276565552 C-9.638999938964844,-2.632999897003174 12.062000274658203,-6.552000045776367 20.937999725341797,-9.623000144958496"/></g><g opacity="1" transform="matrix(1,0,0,1,36.90800094604492,29.700000762939453)"><path stroke-linecap="round" stroke-linejoin="miter" fill-opacity="0" stroke-miterlimit="10" stroke="rgb(0,0,0)" stroke-opacity="1" stroke-width="8" d=" M-15.748000144958496,-12.246000289916992 C-6.076000213623047,-5.4720001220703125 7.341000080108643,2.0920000076293945 17.350000381469727,4.019000053405762"/></g></g><g transform="matrix(0.9952971339225769,-0.0968690812587738,0.0968690812587738,0.9952971339225769,186.73641967773438,253.81863403320312)" opacity="1" style="display: none;"><g opacity="1" transform="matrix(1,0,0,1,100.05000305175781,21.09000015258789)"><path fill="rgb(0,0,0)" fill-opacity="1" d=" M-11.399999618530273,-11.239999771118164 C-18.68000030517578,-4.199999809265137 -20.280000686645508,8.4399995803833 -12.84000015258789,14.119999885559082 C-5.400000095367432,19.799999237060547 5.400000095367432,17.559999465942383 12.279999732971191,9.880000114440918 C19.15999984741211,2.200000047683716 20.280000686645508,-9.800000190734863 14.279999732971191,-14.359999656677246 C8.279999732971191,-18.920000076293945 -2.5199999809265137,-19.799999237060547 -11.399999618530273,-11.239999771118164z"/></g><g opacity="1" transform="matrix(1,0,0,1,16.649999618530273,18.809999465942383)"><path fill="rgb(0,0,0)" fill-opacity="1" d=" M10.399999618530273,12.15999984741211 C3.2799999713897705,18.559999465942383 -6.400000095367432,12.479999542236328 -9.84000015258789,7.920000076293945 C-14.800000190734863,1.2799999713897705 -16.399999618530273,-8.880000114440918 -13.520000457763672,-12.880000114440918 C-10.640000343322754,-16.8799991607666 -0.4000000059604645,-18.559999465942383 6.71999979019165,-12 C13.84000015258789,-5.519999980926514 16.399999618530273,6.71999979019165 10.399999618530273,12.15999984741211z"/></g></g></g></svg>
